<?xml version="1.0" encoding="utf-8"?>
<!-- Generator: Adobe Illustrator 15.0.2, SVG Export Plug-In . SVG Version: 6.00 Build 0)  -->
<!DOCTYPE svg PUBLIC "-//W3C//DTD SVG 1.1//EN" "http://www.w3.org/Graphics/SVG/1.1/DTD/svg11.dtd">
<svg version="1.1" id="Layer_1" xmlns="http://www.w3.org/2000/svg" xmlns:xlink="http://www.w3.org/1999/xlink" x="0px" y="0px"
	 width="81.035px" height="90.753px" viewBox="0 0 81.035 90.753" enable-background="new 0 0 81.035 90.753" xml:space="preserve">
<g id="Layer_1_1_">
	<g id="Layer_3">
		<g>
			<path fill="#F5F5F5" d="M0.324,87.884v-8.15c0-1.571,1.279-2.869,2.869-2.869h4.385c1.572,0,2.869,1.297,2.869,2.869v8.15
				c0,1.572-1.297,2.869-2.869,2.869H3.193C1.603,90.753,0.324,89.456,0.324,87.884z M1.274,79.588v8.442
				c0,1.06,0.859,1.919,1.919,1.919h4.385c1.06,0,1.919-0.859,1.919-1.919v-8.442c0-1.06-0.859-1.919-1.919-1.919H3.193
				C2.133,77.669,1.274,78.528,1.274,79.588z"/>
			<path fill="#F5F5F5" d="M22.288,79.826v1.9c0,1.59-1.279,2.869-2.869,2.869h-5.317c-0.256,0-0.457-0.128-0.512-0.293v6.159
				c0,0.109-0.091,0.201-0.201,0.201H12.64V77.487c0-0.292,0.237-0.53,0.53-0.53h6.25C21.009,76.957,22.288,78.236,22.288,79.826z
				 M21.338,79.661c0-1.06-0.859-1.918-1.918-1.918h-5.629c-0.109,0-0.201,0.091-0.201,0.201v5.537c0,0.183,0.146,0.329,0.329,0.329
				h5.5c1.06,0,1.919-0.859,1.919-1.918V79.661L21.338,79.661z"/>
			<path fill="#F5F5F5" d="M24.882,79.661v3.984c0.091-0.146,0.292-0.256,0.511-0.256h7.018v0.604c0,0.128-0.091,0.219-0.201,0.219
				h-7.328v3.746c0,1.06,0.859,1.919,1.918,1.919h5.902c0.128,0,0.22,0.091,0.22,0.219v0.566h-6.122
				c-1.59,0-2.869-1.279-2.869-2.869v-7.985c0-1.572,1.279-2.869,2.869-2.869h6.122v0.584c0,0.128-0.092,0.22-0.22,0.22h-5.902
				C25.741,77.743,24.882,78.601,24.882,79.661z"/>
			<path fill="#F5F5F5" d="M43.941,76.957h0.749v13.706h-1.06c-0.055,0-0.183,0-0.292-0.183l-6.725-12.189
				c-0.183-0.329-0.548-0.548-0.896-0.548h-0.164v12.719c0,0.109-0.092,0.201-0.201,0.201h-0.75V77.14
				c0-0.11,0.091-0.201,0.201-0.201h1.206c0.457,0,1.06,0.366,1.261,0.768l6.469,11.787V77.158
				C43.74,77.048,43.832,76.957,43.941,76.957z"/>
			<path fill="#D6DE00" d="M56.787,80.045v1.809c0,1.699-1.389,3.106-3.107,3.106h-4.002c-0.566,0-1.023-0.329-1.06-0.731v6.195
				c0,0.128-0.11,0.237-0.238,0.237h-1.48V77.998c0-0.584,0.475-1.06,1.06-1.06h5.72C55.398,76.938,56.787,78.345,56.787,80.045z
				 M55.069,79.899c0-0.768-0.622-1.389-1.389-1.389h-4.714c-0.201,0-0.348,0.165-0.348,0.347v4.185
				c0,0.183,0.165,0.347,0.348,0.347c0,0,0,0,0.018,0h4.696c0.768,0,1.389-0.621,1.389-1.388V79.899L55.069,79.899z"/>
			<path fill="#D6DE00" d="M58.467,89.602V77.998c0-0.584,0.475-1.06,1.06-1.06h5.866c1.718,0,3.106,1.389,3.106,3.106v7.511
				c0,1.699-1.389,3.106-3.106,3.106h-5.866C58.942,90.662,58.467,90.187,58.467,89.602z M65.393,89.09
				c0.768,0,1.389-0.621,1.389-1.389v-7.803c0-0.768-0.622-1.389-1.389-1.389h-4.861c-0.201,0-0.347,0.146-0.347,0.347v9.886
				c0,0.183,0.146,0.347,0.347,0.347H65.393z"/>
			<path fill="#D6DE00" d="M70.692,87.629v-10.69h1.48c0.128,0,0.238,0.109,0.238,0.237v10.599c0,0.768,0.621,1.389,1.389,1.389
				h4.13c0.768,0,1.389-0.621,1.389-1.389V77.176c0-0.128,0.11-0.237,0.238-0.237h1.48v10.69c0,1.717-1.407,3.106-3.107,3.106
				h-4.129C72.081,90.735,70.692,89.346,70.692,87.629z"/>
		</g>
	</g>
	
		<polyline fill="none" stroke="#F5F5F5" stroke-width="5" stroke-linecap="round" stroke-linejoin="round" stroke-miterlimit="10" points="
		38.54,12.904 38.49,70.102 2.868,70.102 2.868,3 78.584,3 78.584,39.047 48.931,38.935 48.819,70.304 	"/>
</g>
</svg>
